<svg width="23" height="21" viewBox="0 0 23 21" fill="none" xmlns="http://www.w3.org/2000/svg">
<path d="M0.59495 8.57378C0.00397189 8.57378 -0.169246 8.99252 0.17719 9.48455L2.39845 12.7403C2.68375 13.1486 3.08113 13.1486 3.35624 12.7403L5.57751 9.48455C5.91375 8.99252 5.74054 8.57378 5.15975 8.57378H3.46833C4.32423 4.43868 7.89047 1.36092 12.1802 1.36092C17.1016 1.36092 21.0754 5.4332 21.0754 10.5C21.0754 15.5563 17.1016 19.66 12.1802 19.6391C9.08262 19.6391 6.38246 18.006 4.79293 15.5563C4.55858 15.2318 4.18158 15.1271 3.85552 15.326C3.54984 15.5145 3.45814 15.9541 3.71287 16.3101C5.61826 19.0842 8.67505 21 12.1802 21C17.7741 21 22.4 16.2473 22.4 10.5C22.4 4.74227 17.7741 0 12.1802 0C7.21798 0 3.02 3.72682 2.13353 8.57378H0.59495ZM11.7828 4.5015C11.4262 4.5015 11.151 4.78415 11.151 5.14008V10.8873C11.151 11.1072 11.2122 11.2747 11.3548 11.4631L13.9225 14.9492C14.1773 15.2841 14.5543 15.3365 14.8599 15.1062C15.1452 14.8968 15.1758 14.5199 14.9415 14.2059L12.3941 10.7198V5.14008C12.3941 4.78415 12.119 4.5015 11.7828 4.5015Z" fill="#E1E1E1"/>
</svg>
