<svg width="24" height="21" viewBox="0 0 24 21" fill="none" xmlns="http://www.w3.org/2000/svg">
<path d="M4.93125 21H18.8275C20.1996 21 20.9733 20.2565 20.9733 18.9222V8.73663L22.5723 10.0607C22.7374 10.1932 22.9025 10.3052 23.1191 10.3052C23.5008 10.3052 23.8 10.0811 23.8 9.71444C23.8 9.46999 23.7175 9.31721 23.5318 9.16442L20.9733 7.03565V2.79847C20.9733 2.43179 20.7257 2.19753 20.3543 2.19753H19.3846C19.0235 2.19753 18.7656 2.43179 18.7656 2.79847V5.20226L13.0296 0.435431C12.3384 -0.145144 11.5028 -0.145144 10.8013 0.435431L0.268227 9.16442C0.0825314 9.31721 0 9.50055 0 9.69407C0 10.0098 0.257911 10.3052 0.680884 10.3052C0.897529 10.3052 1.07291 10.1932 1.22765 10.0607L2.79575 8.76719V18.9222C2.79575 20.2565 3.56948 21 4.93125 21ZM14.8144 12.6784C14.8144 12.2506 14.5358 11.9756 14.1026 11.9756H9.69744C9.26415 11.9756 8.97529 12.2506 8.97529 12.6784V19.7472H5.19948C4.44638 19.7472 4.07499 19.3703 4.07499 18.6166V7.70789L11.5028 1.55584C11.7607 1.33176 12.0393 1.31139 12.3178 1.55584L19.6941 7.67734V18.6166C19.6941 19.3703 19.3227 19.7472 18.5593 19.7472H14.8144V12.6784Z" fill="#E1E1E1"/>
</svg>
